<?xml version="1.0" encoding="UTF-8"?><svg xmlns="http://www.w3.org/2000/svg" viewBox="0 0 1024 1024"><defs><style>.cls-1{fill-rule:evenodd;}.cls-1,.cls-2{fill:#227df8;}</style></defs><g id="apple"><g id="apple-2"><path id="path-1" class="cls-1" d="M643.53,119.75c-.66-9.33-2.12-20.11-5.13-30.65-5.44-19.04-19.88-41.32-22.43-45.41-2.55-4.09-1.3-5.74,5.34-9.06,6.64-3.32,10.45-2.26,14.54,3.38,0,0,14.56,20.95,21.71,45.98,3.4,11.89,5.06,24.78,5.86,35.76h-19.88Z"/><path id="path-2" class="cls-1" d="M832.22,20.77c3.69,7.48-18.09,37.55-62.89,57.48-44.8,19.93-98.07,16.45-86.77,9.1,19.53-12.7,93.88-71.03,149.65-66.58Z"/><path id="path-3" class="cls-1" d="M690.76,348.38c-13.24,0-25.93-2.52-37.68-7.14-11.75,4.62-24.44,7.14-37.68,7.14-60.67,0-113.68-79.72-113.68-144.97s27.47-97.71,88.13-97.71c20.61,0,39.81,12.02,63.23,12.02s42.61-12.02,63.23-12.02c60.67,0,88.13,32.46,88.13,97.71s-53.01,144.97-113.68,144.97Z"/></g></g><g id="base"><path class="cls-2" d="M856.18,246.78c-7.12-3.56-15.1-5.47-23.01-5.38H190.83c-27.39-.57-51.58,23.55-51.01,50.96-4.17,14.93,58,123.92,63.49,139.01,37.63,73.83,104.47,75.45,177.4,72.59v137.45c22.26-16.91,47.82-29.71,75.8-37.19,36.33-9.95,74.53-9.95,110.86,0,27.42,7.35,52.53,19.81,74.47,36.24l1.43-136.5c72.59,2.91,140.01,1.14,177.38-72.54,0,0,58.34-116.24,58.34-116.24,12.74-24.26,1.97-56.66-22.82-68.4Z"/><path class="cls-2" d="M823.11,857c-.09-23.51-.53-43.79-3.79-66.98-14.66-115.99-98.02-219.86-210.6-254.22-57.2-17.73-154.83-19.11-209.48,4.07l-.14.06c-133.38,55.8-203.83,177.71-198.44,320.96-.05,17.59-.02,35.79-.03,53.54.63,28.61-1.84,47.61,10.2,67.85,9.11,14.1,21.71,21.22,37.42,21.06,91.14-.08,436.21.43,531.09-.16,19.5-1.28,33.87-14.56,40.33-36.42,3.07-11.69,3.25-24.48,3.42-36.75.11-24.19.07-48.95.02-73.01ZM733.61,924.14h-443.45v-98.23c.19-104.42,68.56-195.54,166.36-221.68,36.33-9.95,74.53-9.95,110.86,0,97.74,26.19,166.06,117.3,166.23,221.68v98.23Z"/></g><g id="dial"><circle class="cls-2" cx="512" cy="776.69" r="47.13"/><line class="cls-2" x1="499.04" y1="789.97" x2="602.21" y2="684.22"/><path class="cls-2" d="M499.03,809.24c-4.85,0-9.71-1.82-13.45-5.48-7.62-7.43-7.77-19.63-.34-27.25l103.17-105.76c7.43-7.62,19.63-7.77,27.25-.34,7.62,7.43,7.77,19.63.34,27.25l-103.18,105.76c-3.78,3.87-8.78,5.81-13.8,5.81Z"/></g></svg>